<?xml version="1.0" encoding="UTF-8"?>
<svg width="28px" height="28px" viewBox="0 0 28 28" version="1.1" xmlns="http://www.w3.org/2000/svg" xmlns:xlink="http://www.w3.org/1999/xlink">
    <title>编组 24</title>
    <g id="页面-1" stroke="none" strokeWidth="1" fill="none" fillRule="evenodd">
        <g id="编组-24">
            <rect id="矩形" fill="#0000FF" x="0" y="0" width="28" height="28" rx="2"></rect>
            <g id="搜索" transform="translate(7.000000, 7.000000)" fillRule="nonzero">
                <rect id="矩形" fill="#000000" opacity="0" x="0" y="0" width="14" height="14"></rect>
                <path d="M13.8099609,12.854625 L11.1862598,10.2756855 C13.3725293,7.78535352 13.2419629,4.07034961 10.8364922,1.7973457 C8.38720312,-0.606265625 4.36347461,-0.606265625 1.87033984,1.84117773 C-0.578962891,4.20094336 -0.622794922,8.0903457 1.73977344,10.4939434 L1.87033984,10.6254531 C4.14428711,12.810793 7.68766797,13.0728828 10.2237187,11.1944082 L12.8483633,13.772418 C12.9789297,13.902998 13.1542852,13.9906758 13.3286973,13.9906758 C13.5114246,13.9833579 13.6840917,13.9050562 13.8099883,13.772418 C14.0291758,13.5532305 14.0730078,13.1167148 13.8099883,12.854625 L13.8099609,12.854625 Z M1.34613281,6.21187109 C1.3890625,3.50138086 3.62010742,1.3169707 6.37533203,1.3169707 C9.13055664,1.3169707 11.3606719,3.50138086 11.4045039,6.21184375 C11.3606719,8.96426562 9.08671094,11.1496191 6.37533203,11.1057871 C5.05813649,11.1282223 3.7864331,10.6241645 2.84228941,9.70541532 C1.89814571,8.7866661 1.35961063,7.52917507 1.34613281,6.21185742 L1.34613281,6.21187109 Z" id="形状" fill="#FFFFFF"></path>
            </g>
        </g>
    </g>
</svg>